<svg width="546" height="215" viewBox="0 0 546 215" fill="none" xmlns="http://www.w3.org/2000/svg">
<path d="M2.64205 26V4.18182H10.2699C11.7898 4.18182 13.0433 4.4446 14.0305 4.97017C15.0178 5.48864 15.7528 6.18821 16.2358 7.06889C16.7188 7.94247 16.9602 8.91193 16.9602 9.97727C16.9602 10.9148 16.7933 11.6889 16.4595 12.2997C16.1328 12.9105 15.6996 13.3935 15.1598 13.7486C14.6271 14.1037 14.0483 14.3665 13.4233 14.5369V14.75C14.0909 14.7926 14.7621 15.027 15.4368 15.4531C16.1115 15.8793 16.6761 16.4901 17.1307 17.2855C17.5852 18.081 17.8125 19.054 17.8125 20.2045C17.8125 21.2983 17.5639 22.282 17.0668 23.1555C16.5696 24.0291 15.7848 24.7216 14.7124 25.233C13.6399 25.7443 12.2443 26 10.5256 26H2.64205ZM5.28409 23.6562H10.5256C12.2514 23.6562 13.4766 23.3224 14.201 22.6548C14.9325 21.9801 15.2983 21.1634 15.2983 20.2045C15.2983 19.4659 15.1101 18.7841 14.7337 18.1591C14.3572 17.527 13.821 17.0227 13.125 16.6463C12.429 16.2628 11.6051 16.071 10.6534 16.071H5.28409V23.6562ZM5.28409 13.7699H10.1847C10.9801 13.7699 11.6974 13.6136 12.3366 13.3011C12.983 12.9886 13.4943 12.5483 13.8707 11.9801C14.2543 11.4119 14.446 10.7443 14.446 9.97727C14.446 9.01847 14.1122 8.20526 13.4446 7.53764C12.777 6.86293 11.7188 6.52557 10.2699 6.52557H5.28409V13.7699ZM28.6737 26.3409C27.0969 26.3409 25.7369 25.9929 24.5934 25.2969C23.457 24.5938 22.5799 23.6136 21.962 22.3565C21.3512 21.0923 21.0458 19.6222 21.0458 17.946C21.0458 16.2699 21.3512 14.7926 21.962 13.5142C22.5799 12.2287 23.4393 11.2273 24.5401 10.5099C25.6481 9.78551 26.9407 9.4233 28.418 9.4233C29.2702 9.4233 30.1119 9.56534 30.9428 9.84943C31.7738 10.1335 32.5302 10.5952 33.212 11.2344C33.8938 11.8665 34.4371 12.7045 34.842 13.7486C35.2468 14.7926 35.4492 16.0781 35.4492 17.6051V18.6705H22.8356V16.4972H32.8924C32.8924 15.5739 32.7077 14.75 32.3384 14.0256C31.9762 13.3011 31.4577 12.7294 30.783 12.3104C30.1154 11.8913 29.3271 11.6818 28.418 11.6818C27.4165 11.6818 26.5501 11.9304 25.8185 12.4276C25.0941 12.9176 24.5366 13.5568 24.146 14.3452C23.7553 15.1335 23.56 15.9787 23.56 16.8807V18.3295C23.56 19.5653 23.7731 20.6129 24.1992 21.4723C24.6325 22.3246 25.2326 22.9744 25.9996 23.4219C26.7667 23.8622 27.658 24.0824 28.6737 24.0824C29.3342 24.0824 29.9308 23.9901 30.4634 23.8054C31.0032 23.6136 31.4684 23.3295 31.859 22.9531C32.2496 22.5696 32.5515 22.0937 32.7646 21.5256L35.1935 22.2074C34.9379 23.0312 34.5082 23.7557 33.9045 24.3807C33.3008 24.9986 32.555 25.4815 31.6673 25.8295C30.7795 26.1705 29.7816 26.3409 28.6737 26.3409ZM50.8647 13.3011L48.6062 13.9403C48.4641 13.5639 48.2546 13.1982 47.9776 12.843C47.7077 12.4808 47.3384 12.1825 46.8697 11.9482C46.4009 11.7138 45.8008 11.5966 45.0692 11.5966C44.0678 11.5966 43.2333 11.8274 42.5657 12.2891C41.9052 12.7436 41.5749 13.3224 41.5749 14.0256C41.5749 14.6506 41.8022 15.1442 42.2567 15.5064C42.7113 15.8686 43.4215 16.1705 44.3874 16.4119L46.8164 17.0085C48.2795 17.3636 49.3697 17.907 50.087 18.6385C50.8043 19.3629 51.163 20.2969 51.163 21.4403C51.163 22.3778 50.8931 23.2159 50.3533 23.9545C49.8207 24.6932 49.0749 25.2756 48.1161 25.7017C47.1573 26.1278 46.0423 26.3409 44.771 26.3409C43.1019 26.3409 41.7205 25.9787 40.6268 25.2543C39.533 24.5298 38.8406 23.4716 38.5494 22.0795L40.9357 21.483C41.163 22.3636 41.5927 23.0241 42.2248 23.4645C42.864 23.9048 43.6985 24.125 44.7283 24.125C45.9002 24.125 46.8306 23.8764 47.5195 23.3793C48.2156 22.875 48.5636 22.2713 48.5636 21.5682C48.5636 21 48.3647 20.5241 47.967 20.1406C47.5692 19.75 46.9585 19.4588 46.1346 19.267L43.4073 18.6278C41.9087 18.2727 40.8079 17.7223 40.1048 16.9766C39.4087 16.2237 39.0607 15.2827 39.0607 14.1534C39.0607 13.2301 39.32 12.4134 39.8384 11.7031C40.364 10.9929 41.0778 10.4354 41.9798 10.0305C42.8888 9.62571 43.9187 9.4233 45.0692 9.4233C46.6886 9.4233 47.9599 9.77841 48.8832 10.4886C49.8136 11.1989 50.4741 12.1364 50.8647 13.3011ZM62.0641 9.63636V11.767H53.584V9.63636H62.0641ZM56.0556 5.71591H58.5698V21.3125C58.5698 22.0227 58.6728 22.5554 58.8787 22.9105C59.0918 23.2585 59.3617 23.4929 59.6884 23.6136C60.0222 23.7273 60.3738 23.7841 60.7431 23.7841C61.0201 23.7841 61.2473 23.7699 61.4249 23.7415C61.6025 23.706 61.7445 23.6776 61.851 23.6562L62.3624 25.9148C62.1919 25.9787 61.954 26.0426 61.6486 26.1065C61.3432 26.1776 60.9561 26.2131 60.4874 26.2131C59.7772 26.2131 59.0811 26.0604 58.3993 25.755C57.7246 25.4496 57.1635 24.9844 56.7161 24.3594C56.2757 23.7344 56.0556 22.946 56.0556 21.9943V5.71591ZM81.3574 26H74.6245V4.18182H81.6557C83.7722 4.18182 85.5833 4.61861 87.089 5.49219C88.5946 6.35866 89.7488 7.60511 90.5513 9.23153C91.3539 10.8509 91.7551 12.7898 91.7551 15.0483C91.7551 17.321 91.3503 19.2777 90.5407 20.9183C89.731 22.5518 88.552 23.8089 87.0037 24.6896C85.4554 25.5632 83.5733 26 81.3574 26ZM77.2665 23.6562H81.187C82.9909 23.6562 84.486 23.3082 85.6721 22.6122C86.8581 21.9162 87.7424 20.9254 88.3248 19.6399C88.9071 18.3544 89.1983 16.8239 89.1983 15.0483C89.1983 13.2869 88.9107 11.7706 88.3354 10.4993C87.7601 9.22088 86.9007 8.24077 85.7573 7.55895C84.6138 6.87003 83.1898 6.52557 81.4853 6.52557H77.2665V23.6562ZM102.707 26.3409C101.13 26.3409 99.7701 25.9929 98.6266 25.2969C97.4902 24.5938 96.6131 23.6136 95.9952 22.3565C95.3844 21.0923 95.079 19.6222 95.079 17.946C95.079 16.2699 95.3844 14.7926 95.9952 13.5142C96.6131 12.2287 97.4725 11.2273 98.5733 10.5099C99.6813 9.78551 100.974 9.4233 102.451 9.4233C103.303 9.4233 104.145 9.56534 104.976 9.84943C105.807 10.1335 106.563 10.5952 107.245 11.2344C107.927 11.8665 108.47 12.7045 108.875 13.7486C109.28 14.7926 109.482 16.0781 109.482 17.6051V18.6705H96.8688V16.4972H106.926C106.926 15.5739 106.741 14.75 106.372 14.0256C106.009 13.3011 105.491 12.7294 104.816 12.3104C104.149 11.8913 103.36 11.6818 102.451 11.6818C101.45 11.6818 100.583 11.9304 99.8517 12.4276C99.1273 12.9176 98.5698 13.5568 98.1792 14.3452C97.7885 15.1335 97.5932 15.9787 97.5932 16.8807V18.3295C97.5932 19.5653 97.8063 20.6129 98.2324 21.4723C98.6657 22.3246 99.2658 22.9744 100.033 23.4219C100.8 23.8622 101.691 24.0824 102.707 24.0824C103.367 24.0824 103.964 23.9901 104.497 23.8054C105.036 23.6136 105.502 23.3295 105.892 22.9531C106.283 22.5696 106.585 22.0937 106.798 21.5256L109.227 22.2074C108.971 23.0312 108.541 23.7557 107.938 24.3807C107.334 24.9986 106.588 25.4815 105.7 25.8295C104.813 26.1705 103.815 26.3409 102.707 26.3409ZM118.122 26.3835C117.085 26.3835 116.144 26.1882 115.299 25.7976C114.454 25.3999 113.783 24.8281 113.286 24.0824C112.789 23.3295 112.54 22.4205 112.54 21.3551C112.54 20.4176 112.725 19.6577 113.094 19.0753C113.463 18.4858 113.957 18.0241 114.575 17.6903C115.193 17.3565 115.874 17.108 116.62 16.9446C117.373 16.7741 118.129 16.6392 118.889 16.5398C119.884 16.4119 120.69 16.3161 121.308 16.2521C121.933 16.1811 122.387 16.0639 122.671 15.9006C122.963 15.7372 123.108 15.4531 123.108 15.0483V14.9631C123.108 13.9119 122.82 13.0952 122.245 12.5128C121.677 11.9304 120.814 11.6392 119.656 11.6392C118.456 11.6392 117.515 11.902 116.833 12.4276C116.151 12.9531 115.672 13.5142 115.395 14.1108L113.009 13.2585C113.435 12.2642 114.003 11.4901 114.713 10.9361C115.431 10.375 116.212 9.98437 117.057 9.7642C117.909 9.53693 118.747 9.4233 119.571 9.4233C120.097 9.4233 120.7 9.48722 121.382 9.61506C122.071 9.73579 122.735 9.98793 123.374 10.3714C124.021 10.755 124.557 11.3338 124.983 12.108C125.409 12.8821 125.622 13.919 125.622 15.2188V26H123.108V23.7841H122.98C122.81 24.1392 122.526 24.5192 122.128 24.924C121.73 25.3288 121.201 25.6733 120.541 25.9574C119.88 26.2415 119.074 26.3835 118.122 26.3835ZM118.506 24.125C119.5 24.125 120.338 23.9297 121.02 23.5391C121.709 23.1484 122.227 22.6442 122.575 22.0263C122.931 21.4084 123.108 20.7585 123.108 20.0767V17.7756C123.002 17.9034 122.767 18.0206 122.405 18.1271C122.05 18.2266 121.638 18.3153 121.169 18.3935C120.708 18.4645 120.257 18.5284 119.816 18.5852C119.383 18.6349 119.031 18.6776 118.762 18.7131C118.108 18.7983 117.497 18.9368 116.929 19.1286C116.368 19.3132 115.914 19.5937 115.566 19.9702C115.225 20.3395 115.054 20.8437 115.054 21.483C115.054 22.3565 115.377 23.017 116.024 23.4645C116.677 23.9048 117.504 24.125 118.506 24.125ZM132.725 4.18182V26H130.211V4.18182H132.725ZM164.518 15.0909C164.518 17.392 164.102 19.3807 163.271 21.0568C162.441 22.733 161.301 24.0256 159.852 24.9347C158.403 25.8438 156.748 26.2983 154.887 26.2983C153.026 26.2983 151.372 25.8438 149.923 24.9347C148.474 24.0256 147.334 22.733 146.503 21.0568C145.672 19.3807 145.257 17.392 145.257 15.0909C145.257 12.7898 145.672 10.8011 146.503 9.125C147.334 7.44886 148.474 6.15625 149.923 5.24716C151.372 4.33807 153.026 3.88352 154.887 3.88352C156.748 3.88352 158.403 4.33807 159.852 5.24716C161.301 6.15625 162.441 7.44886 163.271 9.125C164.102 10.8011 164.518 12.7898 164.518 15.0909ZM161.961 15.0909C161.961 13.2017 161.645 11.6072 161.013 10.3075C160.388 9.00781 159.539 8.02415 158.467 7.35653C157.401 6.68892 156.208 6.35511 154.887 6.35511C153.566 6.35511 152.369 6.68892 151.297 7.35653C150.232 8.02415 149.383 9.00781 148.751 10.3075C148.126 11.6072 147.813 13.2017 147.813 15.0909C147.813 16.9801 148.126 18.5746 148.751 19.8743C149.383 21.174 150.232 22.1577 151.297 22.8253C152.369 23.4929 153.566 23.8267 154.887 23.8267C156.208 23.8267 157.401 23.4929 158.467 22.8253C159.539 22.1577 160.388 21.174 161.013 19.8743C161.645 18.5746 161.961 16.9801 161.961 15.0909ZM171.134 16.1562V26H168.619V9.63636H171.048V12.1932H171.262C171.645 11.3622 172.227 10.6946 173.009 10.1903C173.79 9.67898 174.798 9.4233 176.034 9.4233C177.142 9.4233 178.112 9.65057 178.943 10.1051C179.774 10.5526 180.42 11.2344 180.882 12.1506C181.343 13.0597 181.574 14.2102 181.574 15.6023V26H179.06V15.7727C179.06 14.4872 178.726 13.4858 178.058 12.7685C177.391 12.044 176.475 11.6818 175.31 11.6818C174.507 11.6818 173.79 11.8558 173.158 12.2038C172.533 12.5518 172.039 13.0597 171.677 13.7273C171.315 14.3949 171.134 15.2045 171.134 16.1562ZM188.683 4.18182V26H186.168V4.18182H188.683ZM193.287 26V9.63636H195.802V26H193.287ZM194.566 6.90909C194.076 6.90909 193.653 6.74219 193.298 6.40838C192.95 6.07457 192.776 5.6733 192.776 5.20455C192.776 4.7358 192.95 4.33452 193.298 4.00071C193.653 3.6669 194.076 3.5 194.566 3.5C195.056 3.5 195.475 3.6669 195.823 4.00071C196.178 4.33452 196.356 4.7358 196.356 5.20455C196.356 5.6733 196.178 6.07457 195.823 6.40838C195.475 6.74219 195.056 6.90909 194.566 6.90909ZM202.921 16.1562V26H200.407V9.63636H202.836V12.1932H203.049C203.432 11.3622 204.015 10.6946 204.796 10.1903C205.577 9.67898 206.586 9.4233 207.821 9.4233C208.929 9.4233 209.899 9.65057 210.73 10.1051C211.561 10.5526 212.207 11.2344 212.669 12.1506C213.13 13.0597 213.361 14.2102 213.361 15.6023V26H210.847V15.7727C210.847 14.4872 210.513 13.4858 209.846 12.7685C209.178 12.044 208.262 11.6818 207.097 11.6818C206.294 11.6818 205.577 11.8558 204.945 12.2038C204.32 12.5518 203.826 13.0597 203.464 13.7273C203.102 14.3949 202.921 15.2045 202.921 16.1562ZM224.816 26.3409C223.24 26.3409 221.879 25.9929 220.736 25.2969C219.6 24.5938 218.722 23.6136 218.105 22.3565C217.494 21.0923 217.188 19.6222 217.188 17.946C217.188 16.2699 217.494 14.7926 218.105 13.5142C218.722 12.2287 219.582 11.2273 220.683 10.5099C221.791 9.78551 223.083 9.4233 224.561 9.4233C225.413 9.4233 226.254 9.56534 227.085 9.84943C227.916 10.1335 228.673 10.5952 229.355 11.2344C230.036 11.8665 230.58 12.7045 230.985 13.7486C231.389 14.7926 231.592 16.0781 231.592 17.6051V18.6705H218.978V16.4972H229.035C229.035 15.5739 228.85 14.75 228.481 14.0256C228.119 13.3011 227.6 12.7294 226.926 12.3104C226.258 11.8913 225.47 11.6818 224.561 11.6818C223.559 11.6818 222.693 11.9304 221.961 12.4276C221.237 12.9176 220.679 13.5568 220.289 14.3452C219.898 15.1335 219.703 15.9787 219.703 16.8807V18.3295C219.703 19.5653 219.916 20.6129 220.342 21.4723C220.775 22.3246 221.375 22.9744 222.142 23.4219C222.909 23.8622 223.801 24.0824 224.816 24.0824C225.477 24.0824 226.073 23.9901 226.606 23.8054C227.146 23.6136 227.611 23.3295 228.002 22.9531C228.392 22.5696 228.694 22.0937 228.907 21.5256L231.336 22.2074C231.08 23.0312 230.651 23.7557 230.047 24.3807C229.443 24.9986 228.698 25.4815 227.81 25.8295C226.922 26.1705 225.924 26.3409 224.816 26.3409ZM250.502 26.3409C249.024 26.3409 247.728 25.9893 246.613 25.2862C245.505 24.5831 244.639 23.5994 244.014 22.3352C243.396 21.071 243.087 19.5937 243.087 17.9034C243.087 16.1989 243.396 14.7109 244.014 13.4396C244.639 12.1683 245.505 11.1811 246.613 10.478C247.728 9.77486 249.024 9.4233 250.502 9.4233C251.979 9.4233 253.271 9.77486 254.379 10.478C255.494 11.1811 256.361 12.1683 256.979 13.4396C257.604 14.7109 257.916 16.1989 257.916 17.9034C257.916 19.5937 257.604 21.071 256.979 22.3352C256.361 23.5994 255.494 24.5831 254.379 25.2862C253.271 25.9893 251.979 26.3409 250.502 26.3409ZM250.502 24.0824C251.624 24.0824 252.547 23.7947 253.271 23.2195C253.996 22.6442 254.532 21.8878 254.88 20.9503C255.228 20.0128 255.402 18.9972 255.402 17.9034C255.402 16.8097 255.228 15.7905 254.88 14.8459C254.532 13.9013 253.996 13.1378 253.271 12.5554C252.547 11.973 251.624 11.6818 250.502 11.6818C249.379 11.6818 248.456 11.973 247.732 12.5554C247.007 13.1378 246.471 13.9013 246.123 14.8459C245.775 15.7905 245.601 16.8097 245.601 17.9034C245.601 18.9972 245.775 20.0128 246.123 20.9503C246.471 21.8878 247.007 22.6442 247.732 23.2195C248.456 23.7947 249.379 24.0824 250.502 24.0824ZM264.268 16.1562V26H261.754V9.63636H264.183V12.1932H264.396C264.78 11.3622 265.362 10.6946 266.143 10.1903C266.925 9.67898 267.933 9.4233 269.169 9.4233C270.277 9.4233 271.246 9.65057 272.077 10.1051C272.908 10.5526 273.555 11.2344 274.016 12.1506C274.478 13.0597 274.709 14.2102 274.709 15.6023V26H272.195V15.7727C272.195 14.4872 271.861 13.4858 271.193 12.7685C270.526 12.044 269.609 11.6818 268.445 11.6818C267.642 11.6818 266.925 11.8558 266.293 12.2038C265.668 12.5518 265.174 13.0597 264.812 13.7273C264.45 14.3949 264.268 15.2045 264.268 16.1562ZM300.013 9.63636C299.885 8.55682 299.367 7.71875 298.458 7.12216C297.549 6.52557 296.434 6.22727 295.113 6.22727C294.147 6.22727 293.302 6.38352 292.577 6.69602C291.86 7.00852 291.299 7.43821 290.894 7.98508C290.496 8.53196 290.297 9.15341 290.297 9.84943C290.297 10.4318 290.436 10.9325 290.713 11.3516C290.997 11.7635 291.359 12.108 291.8 12.3849C292.24 12.6548 292.702 12.8786 293.184 13.0561C293.667 13.2266 294.111 13.3651 294.516 13.4716L296.732 14.0682C297.3 14.2173 297.932 14.4233 298.628 14.6861C299.331 14.9489 300.003 15.3075 300.642 15.7621C301.288 16.2095 301.821 16.7848 302.24 17.4879C302.659 18.1911 302.868 19.054 302.868 20.0767C302.868 21.2557 302.559 22.321 301.942 23.2727C301.331 24.2244 300.436 24.9808 299.257 25.5419C298.085 26.103 296.661 26.3835 294.985 26.3835C293.422 26.3835 292.069 26.1314 290.926 25.6271C289.79 25.1229 288.895 24.4197 288.241 23.5178C287.595 22.6158 287.229 21.5682 287.144 20.375H289.871C289.942 21.1989 290.219 21.8807 290.702 22.4205C291.192 22.9531 291.81 23.3509 292.556 23.6136C293.309 23.8693 294.118 23.9972 294.985 23.9972C295.993 23.9972 296.899 23.8338 297.702 23.5071C298.504 23.1733 299.14 22.7116 299.608 22.1222C300.077 21.5256 300.312 20.8295 300.312 20.0341C300.312 19.3097 300.109 18.7202 299.704 18.2656C299.3 17.8111 298.767 17.4418 298.106 17.1577C297.446 16.8736 296.732 16.625 295.965 16.4119L293.28 15.6449C291.576 15.1548 290.226 14.4553 289.232 13.5462C288.238 12.6371 287.741 11.4474 287.741 9.97727C287.741 8.75568 288.071 7.69034 288.731 6.78125C289.399 5.86506 290.294 5.15483 291.416 4.65057C292.545 4.1392 293.806 3.88352 295.198 3.88352C296.604 3.88352 297.854 4.13565 298.948 4.63991C300.042 5.13707 300.908 5.81889 301.547 6.68537C302.194 7.55185 302.535 8.53551 302.57 9.63636H300.013ZM306.871 32.1364V9.63636H309.3V12.2358H309.599C309.783 11.9517 310.039 11.5895 310.366 11.1491C310.7 10.7017 311.175 10.304 311.793 9.95597C312.418 9.60085 313.263 9.4233 314.329 9.4233C315.707 9.4233 316.921 9.76776 317.972 10.4567C319.023 11.1456 319.844 12.1222 320.433 13.3864C321.023 14.6506 321.317 16.142 321.317 17.8608C321.317 19.5938 321.023 21.0959 320.433 22.3672C319.844 23.6314 319.027 24.6115 317.983 25.3075C316.939 25.9964 315.735 26.3409 314.371 26.3409C313.32 26.3409 312.479 26.1669 311.847 25.8189C311.214 25.4638 310.728 25.0625 310.387 24.6151C310.046 24.1605 309.783 23.7841 309.599 23.4858H309.386V32.1364H306.871ZM309.343 17.8182C309.343 19.054 309.524 20.1442 309.886 21.0888C310.249 22.0263 310.778 22.7614 311.474 23.294C312.17 23.8196 313.022 24.0824 314.031 24.0824C315.082 24.0824 315.959 23.8054 316.662 23.2514C317.372 22.6903 317.905 21.9375 318.26 20.9929C318.622 20.0412 318.803 18.983 318.803 17.8182C318.803 16.6676 318.626 15.6307 318.271 14.7074C317.923 13.777 317.393 13.0419 316.683 12.5021C315.98 11.9553 315.096 11.6818 314.031 11.6818C313.008 11.6818 312.148 11.9411 311.452 12.4595C310.756 12.9709 310.231 13.6882 309.876 14.6115C309.521 15.5277 309.343 16.5966 309.343 17.8182ZM331.8 26.3409C330.323 26.3409 329.027 25.9893 327.912 25.2862C326.804 24.5831 325.938 23.5994 325.312 22.3352C324.695 21.071 324.386 19.5937 324.386 17.9034C324.386 16.1989 324.695 14.7109 325.312 13.4396C325.938 12.1683 326.804 11.1811 327.912 10.478C329.027 9.77486 330.323 9.4233 331.8 9.4233C333.278 9.4233 334.57 9.77486 335.678 10.478C336.793 11.1811 337.66 12.1683 338.278 13.4396C338.903 14.7109 339.215 16.1989 339.215 17.9034C339.215 19.5937 338.903 21.071 338.278 22.3352C337.66 23.5994 336.793 24.5831 335.678 25.2862C334.57 25.9893 333.278 26.3409 331.8 26.3409ZM331.8 24.0824C332.923 24.0824 333.846 23.7947 334.57 23.2195C335.295 22.6442 335.831 21.8878 336.179 20.9503C336.527 20.0128 336.701 18.9972 336.701 17.9034C336.701 16.8097 336.527 15.7905 336.179 14.8459C335.831 13.9013 335.295 13.1378 334.57 12.5554C333.846 11.973 332.923 11.6818 331.8 11.6818C330.678 11.6818 329.755 11.973 329.031 12.5554C328.306 13.1378 327.77 13.9013 327.422 14.8459C327.074 15.7905 326.9 16.8097 326.9 17.9034C326.9 18.9972 327.074 20.0128 327.422 20.9503C327.77 21.8878 328.306 22.6442 329.031 23.2195C329.755 23.7947 330.678 24.0824 331.8 24.0824ZM343.053 26V9.63636H345.482V12.108H345.653C345.951 11.2983 346.491 10.6413 347.272 10.1371C348.053 9.63281 348.934 9.38068 349.914 9.38068C350.099 9.38068 350.329 9.38423 350.606 9.39133C350.883 9.39844 351.093 9.40909 351.235 9.4233V11.9801C351.15 11.9588 350.954 11.9268 350.649 11.8842C350.351 11.8345 350.035 11.8097 349.701 11.8097C348.905 11.8097 348.195 11.9766 347.57 12.3104C346.952 12.6371 346.462 13.0916 346.1 13.674C345.745 14.2493 345.567 14.9062 345.567 15.6449V26H343.053ZM362.357 9.63636V11.767H353.877V9.63636H362.357ZM356.349 5.71591H358.863V21.3125C358.863 22.0227 358.966 22.5554 359.172 22.9105C359.385 23.2585 359.655 23.4929 359.981 23.6136C360.315 23.7273 360.667 23.7841 361.036 23.7841C361.313 23.7841 361.54 23.7699 361.718 23.7415C361.895 23.706 362.037 23.6776 362.144 23.6562L362.655 25.9148C362.485 25.9787 362.247 26.0426 361.942 26.1065C361.636 26.1776 361.249 26.2131 360.78 26.2131C360.07 26.2131 359.374 26.0604 358.692 25.755C358.018 25.4496 357.456 24.9844 357.009 24.3594C356.569 23.7344 356.349 22.946 356.349 21.9943V5.71591ZM379.392 26.3835C378.355 26.3835 377.414 26.1882 376.569 25.7976C375.724 25.3999 375.052 24.8281 374.555 24.0824C374.058 23.3295 373.809 22.4205 373.809 21.3551C373.809 20.4176 373.994 19.6577 374.363 19.0753C374.733 18.4858 375.226 18.0241 375.844 17.6903C376.462 17.3565 377.144 17.108 377.89 16.9446C378.643 16.7741 379.399 16.6392 380.159 16.5398C381.153 16.4119 381.959 16.3161 382.577 16.2521C383.202 16.1811 383.657 16.0639 383.941 15.9006C384.232 15.7372 384.378 15.4531 384.378 15.0483V14.9631C384.378 13.9119 384.09 13.0952 383.515 12.5128C382.947 11.9304 382.084 11.6392 380.926 11.6392C379.726 11.6392 378.785 11.902 378.103 12.4276C377.421 12.9531 376.942 13.5142 376.665 14.1108L374.278 13.2585C374.704 12.2642 375.273 11.4901 375.983 10.9361C376.7 10.375 377.481 9.98437 378.327 9.7642C379.179 9.53693 380.017 9.4233 380.841 9.4233C381.366 9.4233 381.97 9.48722 382.652 9.61506C383.341 9.73579 384.005 9.98793 384.644 10.3714C385.29 10.755 385.827 11.3338 386.253 12.108C386.679 12.8821 386.892 13.919 386.892 15.2188V26H384.378V23.7841H384.25C384.079 24.1392 383.795 24.5192 383.398 24.924C383 25.3288 382.471 25.6733 381.81 25.9574C381.15 26.2415 380.344 26.3835 379.392 26.3835ZM379.775 24.125C380.77 24.125 381.608 23.9297 382.29 23.5391C382.979 23.1484 383.497 22.6442 383.845 22.0263C384.2 21.4084 384.378 20.7585 384.378 20.0767V17.7756C384.271 17.9034 384.037 18.0206 383.675 18.1271C383.319 18.2266 382.907 18.3153 382.439 18.3935C381.977 18.4645 381.526 18.5284 381.086 18.5852C380.653 18.6349 380.301 18.6776 380.031 18.7131C379.378 18.7983 378.767 18.9368 378.199 19.1286C377.638 19.3132 377.183 19.5937 376.835 19.9702C376.494 20.3395 376.324 20.8437 376.324 21.483C376.324 22.3565 376.647 23.017 377.293 23.4645C377.947 23.9048 378.774 24.125 379.775 24.125ZM393.995 16.1562V26H391.481V9.63636H393.91V12.1932H394.123C394.506 11.3622 395.089 10.6946 395.87 10.1903C396.651 9.67898 397.66 9.4233 398.896 9.4233C400.004 9.4233 400.973 9.65057 401.804 10.1051C402.635 10.5526 403.281 11.2344 403.743 12.1506C404.205 13.0597 404.435 14.2102 404.435 15.6023V26H401.921V15.7727C401.921 14.4872 401.587 13.4858 400.92 12.7685C400.252 12.044 399.336 11.6818 398.171 11.6818C397.369 11.6818 396.651 11.8558 396.019 12.2038C395.394 12.5518 394.901 13.0597 394.538 13.7273C394.176 14.3949 393.995 15.2045 393.995 16.1562ZM415.209 26.3409C413.845 26.3409 412.641 25.9964 411.597 25.3075C410.553 24.6115 409.736 23.6314 409.147 22.3672C408.557 21.0959 408.263 19.5938 408.263 17.8608C408.263 16.142 408.557 14.6506 409.147 13.3864C409.736 12.1222 410.557 11.1456 411.608 10.4567C412.659 9.76776 413.873 9.4233 415.251 9.4233C416.317 9.4233 417.158 9.60085 417.776 9.95597C418.401 10.304 418.877 10.7017 419.204 11.1491C419.537 11.5895 419.797 11.9517 419.981 12.2358H420.194V4.18182H422.709V26H420.28V23.4858H419.981C419.797 23.7841 419.534 24.1605 419.193 24.6151C418.852 25.0625 418.366 25.4638 417.733 25.8189C417.101 26.1669 416.26 26.3409 415.209 26.3409ZM415.55 24.0824C416.558 24.0824 417.41 23.8196 418.106 23.294C418.802 22.7614 419.331 22.0263 419.694 21.0888C420.056 20.1442 420.237 19.054 420.237 17.8182C420.237 16.5966 420.059 15.5277 419.704 14.6115C419.349 13.6882 418.824 12.9709 418.128 12.4595C417.432 11.9411 416.572 11.6818 415.55 11.6818C414.484 11.6818 413.596 11.9553 412.886 12.5021C412.183 13.0419 411.654 13.777 411.299 14.7074C410.951 15.6307 410.777 16.6676 410.777 17.8182C410.777 18.983 410.954 20.0412 411.309 20.9929C411.672 21.9375 412.204 22.6903 412.907 23.2514C413.618 23.8054 414.498 24.0824 415.55 24.0824ZM436.441 4.18182H439.594L447.009 22.2926H447.265L454.68 4.18182H457.833V26H455.361V9.4233H455.148L448.33 26H445.944L439.126 9.4233H438.912V26H436.441V4.18182ZM473.102 19.3097V9.63636H475.616V26H473.102V23.2301H472.931C472.548 24.0611 471.951 24.7678 471.142 25.3501C470.332 25.9254 469.309 26.2131 468.074 26.2131C467.051 26.2131 466.142 25.9893 465.346 25.5419C464.551 25.0874 463.926 24.4055 463.471 23.4964C463.017 22.5803 462.789 21.4261 462.789 20.0341V9.63636H465.304V19.8636C465.304 21.0568 465.637 22.0085 466.305 22.7188C466.98 23.429 467.839 23.7841 468.883 23.7841C469.508 23.7841 470.144 23.6243 470.79 23.3047C471.444 22.9851 471.99 22.495 472.431 21.8345C472.878 21.174 473.102 20.3324 473.102 19.3097ZM491.812 13.3011L489.553 13.9403C489.411 13.5639 489.202 13.1982 488.925 12.843C488.655 12.4808 488.286 12.1825 487.817 11.9482C487.348 11.7138 486.748 11.5966 486.017 11.5966C485.015 11.5966 484.181 11.8274 483.513 12.2891C482.852 12.7436 482.522 13.3224 482.522 14.0256C482.522 14.6506 482.749 15.1442 483.204 15.5064C483.659 15.8686 484.369 16.1705 485.335 16.4119L487.764 17.0085C489.227 17.3636 490.317 17.907 491.034 18.6385C491.752 19.3629 492.11 20.2969 492.11 21.4403C492.11 22.3778 491.84 23.2159 491.301 23.9545C490.768 24.6932 490.022 25.2756 489.063 25.7017C488.105 26.1278 486.99 26.3409 485.718 26.3409C484.049 26.3409 482.668 25.9787 481.574 25.2543C480.48 24.5298 479.788 23.4716 479.497 22.0795L481.883 21.483C482.11 22.3636 482.54 23.0241 483.172 23.4645C483.811 23.9048 484.646 24.125 485.676 24.125C486.847 24.125 487.778 23.8764 488.467 23.3793C489.163 22.875 489.511 22.2713 489.511 21.5682C489.511 21 489.312 20.5241 488.914 20.1406C488.517 19.75 487.906 19.4588 487.082 19.267L484.355 18.6278C482.856 18.2727 481.755 17.7223 481.052 16.9766C480.356 16.2237 480.008 15.2827 480.008 14.1534C480.008 13.2301 480.267 12.4134 480.786 11.7031C481.311 10.9929 482.025 10.4354 482.927 10.0305C483.836 9.62571 484.866 9.4233 486.017 9.4233C487.636 9.4233 488.907 9.77841 489.83 10.4886C490.761 11.1989 491.421 12.1364 491.812 13.3011ZM495.895 26V9.63636H498.409V26H495.895ZM497.173 6.90909C496.683 6.90909 496.261 6.74219 495.906 6.40838C495.558 6.07457 495.384 5.6733 495.384 5.20455C495.384 4.7358 495.558 4.33452 495.906 4.00071C496.261 3.6669 496.683 3.5 497.173 3.5C497.663 3.5 498.082 3.6669 498.43 4.00071C498.786 4.33452 498.963 4.7358 498.963 5.20455C498.963 5.6733 498.786 6.07457 498.43 6.40838C498.082 6.74219 497.663 6.90909 497.173 6.90909ZM509.662 26.3409C508.128 26.3409 506.807 25.9787 505.699 25.2543C504.591 24.5298 503.738 23.532 503.142 22.2607C502.545 20.9893 502.247 19.5369 502.247 17.9034C502.247 16.2415 502.552 14.7749 503.163 13.5036C503.781 12.2251 504.64 11.2273 505.741 10.5099C506.849 9.78551 508.142 9.4233 509.619 9.4233C510.77 9.4233 511.807 9.63636 512.73 10.0625C513.653 10.4886 514.41 11.0852 514.999 11.8523C515.589 12.6193 515.954 13.5142 516.096 14.5369H513.582C513.39 13.7912 512.964 13.1307 512.304 12.5554C511.65 11.973 510.77 11.6818 509.662 11.6818C508.682 11.6818 507.822 11.9375 507.084 12.4489C506.352 12.9531 505.78 13.6669 505.368 14.5902C504.964 15.5064 504.761 16.5824 504.761 17.8182C504.761 19.0824 504.96 20.1832 505.358 21.1207C505.763 22.0582 506.331 22.7862 507.062 23.3047C507.801 23.8232 508.667 24.0824 509.662 24.0824C510.315 24.0824 510.908 23.9688 511.441 23.7415C511.974 23.5142 512.425 23.1875 512.794 22.7614C513.163 22.3352 513.426 21.8239 513.582 21.2273H516.096C515.954 22.1932 515.603 23.0632 515.042 23.8374C514.488 24.6044 513.753 25.2152 512.836 25.6697C511.927 26.1172 510.869 26.3409 509.662 26.3409Z" fill="white"/>
<path d="M14.0092 184.18C13.9098 183.249 13.4908 182.525 12.7521 182.006C12.0206 181.488 11.0689 181.229 9.89702 181.229C9.07315 181.229 8.36648 181.353 7.77699 181.602C7.1875 181.85 6.73651 182.187 6.42401 182.614C6.11151 183.04 5.9517 183.526 5.9446 184.073C5.9446 184.528 6.04759 184.922 6.25355 185.256C6.46662 185.589 6.75426 185.874 7.11648 186.108C7.47869 186.335 7.87997 186.527 8.32031 186.683C8.76065 186.839 9.20455 186.971 9.65199 187.077L11.6974 187.589C12.5213 187.781 13.3132 188.04 14.0732 188.366C14.8402 188.693 15.5256 189.105 16.1293 189.602C16.7401 190.099 17.223 190.7 17.5781 191.403C17.9332 192.106 18.1108 192.93 18.1108 193.874C18.1108 195.153 17.7841 196.278 17.1307 197.251C16.4773 198.217 15.5327 198.974 14.2969 199.521C13.0682 200.06 11.5803 200.33 9.8331 200.33C8.13565 200.33 6.66193 200.067 5.41193 199.542C4.16903 199.016 3.19602 198.249 2.4929 197.241C1.79688 196.232 1.42045 195.004 1.36364 193.555H5.25213C5.30895 194.315 5.54332 194.947 5.95526 195.451C6.36719 195.955 6.90341 196.332 7.56392 196.58C8.23153 196.829 8.97727 196.953 9.80114 196.953C10.6605 196.953 11.4134 196.825 12.0597 196.57C12.7131 196.307 13.2244 195.945 13.5938 195.483C13.9631 195.014 14.1513 194.467 14.1584 193.842C14.1513 193.274 13.9844 192.805 13.6577 192.436C13.331 192.06 12.8729 191.747 12.2834 191.499C11.701 191.243 11.0192 191.016 10.2379 190.817L7.75568 190.178C5.95881 189.716 4.53835 189.016 3.49432 188.079C2.45739 187.134 1.93892 185.881 1.93892 184.318C1.93892 183.033 2.28693 181.907 2.98295 180.941C3.68608 179.975 4.64134 179.226 5.84872 178.693C7.05611 178.153 8.4233 177.884 9.95028 177.884C11.4986 177.884 12.8551 178.153 14.0199 178.693C15.1918 179.226 16.1115 179.968 16.7791 180.92C17.4467 181.864 17.7912 182.951 17.8125 184.18H14.0092ZM21.464 206.136V183.636H25.2566V186.342H25.4803C25.6792 185.945 25.9597 185.522 26.3219 185.075C26.6841 184.62 27.1742 184.233 27.7921 183.913C28.41 183.587 29.1983 183.423 30.1571 183.423C31.4213 183.423 32.5613 183.746 33.5769 184.393C34.5996 185.032 35.4093 185.98 36.0059 187.237C36.6096 188.487 36.9114 190.021 36.9114 191.839C36.9114 193.636 36.6167 195.163 36.0272 196.42C35.4377 197.678 34.6351 198.636 33.6195 199.297C32.6039 199.957 31.4533 200.288 30.1678 200.288C29.2303 200.288 28.4526 200.131 27.8347 199.819C27.2168 199.506 26.7196 199.13 26.3432 198.69C25.9739 198.242 25.6863 197.82 25.4803 197.422H25.3205V206.136H21.464ZM25.2459 191.818C25.2459 192.876 25.3951 193.803 25.6934 194.599C25.9988 195.394 26.4355 196.016 27.0037 196.463C27.579 196.903 28.275 197.124 29.0918 197.124C29.9441 197.124 30.6578 196.896 31.2331 196.442C31.8084 195.98 32.2417 195.352 32.5328 194.556C32.8311 193.754 32.9803 192.841 32.9803 191.818C32.9803 190.803 32.8347 189.901 32.5435 189.112C32.2523 188.324 31.8191 187.706 31.2438 187.259C30.6685 186.811 29.9512 186.587 29.0918 186.587C28.2679 186.587 27.5684 186.804 26.9931 187.237C26.4178 187.67 25.981 188.278 25.6827 189.059C25.3915 189.84 25.2459 190.76 25.2459 191.818ZM47.3517 200.32C45.7537 200.32 44.3688 199.968 43.1969 199.265C42.025 198.562 41.1159 197.578 40.4696 196.314C39.8304 195.05 39.5108 193.572 39.5108 191.882C39.5108 190.192 39.8304 188.711 40.4696 187.44C41.1159 186.168 42.025 185.181 43.1969 184.478C44.3688 183.775 45.7537 183.423 47.3517 183.423C48.9498 183.423 50.3347 183.775 51.5066 184.478C52.6784 185.181 53.584 186.168 54.2232 187.44C54.8695 188.711 55.1926 190.192 55.1926 191.882C55.1926 193.572 54.8695 195.05 54.2232 196.314C53.584 197.578 52.6784 198.562 51.5066 199.265C50.3347 199.968 48.9498 200.32 47.3517 200.32ZM47.373 197.23C48.2395 197.23 48.964 196.992 49.5463 196.516C50.1287 196.033 50.562 195.387 50.8461 194.577C51.1373 193.768 51.2828 192.866 51.2828 191.871C51.2828 190.87 51.1373 189.964 50.8461 189.155C50.562 188.338 50.1287 187.688 49.5463 187.205C48.964 186.722 48.2395 186.481 47.373 186.481C46.4853 186.481 45.7466 186.722 45.1571 187.205C44.5748 187.688 44.138 188.338 43.8468 189.155C43.5627 189.964 43.4206 190.87 43.4206 191.871C43.4206 192.866 43.5627 193.768 43.8468 194.577C44.138 195.387 44.5748 196.033 45.1571 196.516C45.7466 196.992 46.4853 197.23 47.373 197.23ZM58.4659 200V183.636H62.2053V186.364H62.3757C62.674 185.419 63.1854 184.691 63.9098 184.18C64.6413 183.661 65.4759 183.402 66.4134 183.402C66.6264 183.402 66.8643 183.413 67.1271 183.434C67.397 183.448 67.6207 183.473 67.7983 183.509V187.056C67.6349 186.999 67.3757 186.95 67.0206 186.907C66.6726 186.857 66.3352 186.832 66.0085 186.832C65.3054 186.832 64.6733 186.985 64.1122 187.29C63.5582 187.589 63.1214 188.004 62.8018 188.537C62.4822 189.07 62.3224 189.684 62.3224 190.38V200H58.4659ZM79.4105 183.636V186.619H70.0036V183.636H79.4105ZM72.326 179.716H76.1825V195.078C76.1825 195.597 76.2607 195.994 76.4169 196.271C76.5803 196.541 76.7933 196.726 77.0561 196.825C77.3189 196.925 77.6101 196.974 77.9297 196.974C78.1712 196.974 78.3913 196.957 78.5902 196.921C78.7962 196.886 78.9524 196.854 79.0589 196.825L79.7088 199.84C79.5028 199.911 79.2081 199.989 78.8246 200.075C78.4482 200.16 77.9865 200.21 77.4396 200.224C76.4737 200.252 75.6037 200.107 74.8295 199.787C74.0554 199.46 73.4411 198.956 72.9865 198.274C72.5391 197.592 72.3189 196.74 72.326 195.717V179.716ZM93.0655 193.118V183.636H96.9221V200H93.1827V197.092H93.0123C92.6429 198.008 92.0357 198.757 91.1905 199.339C90.3525 199.922 89.3191 200.213 88.0904 200.213C87.0179 200.213 86.0698 199.975 85.2459 199.499C84.4292 199.016 83.79 198.317 83.3283 197.401C82.8667 196.477 82.6358 195.362 82.6358 194.055V183.636H86.4924V193.459C86.4924 194.496 86.7765 195.32 87.3446 195.93C87.9128 196.541 88.6586 196.847 89.5819 196.847C90.15 196.847 90.7005 196.708 91.2331 196.431C91.7658 196.154 92.2026 195.742 92.5435 195.195C92.8915 194.641 93.0655 193.949 93.0655 193.118ZM104.744 190.412V200H100.888V183.636H104.574V186.417H104.766C105.142 185.501 105.742 184.773 106.566 184.233C107.397 183.693 108.423 183.423 109.645 183.423C110.774 183.423 111.758 183.665 112.596 184.148C113.441 184.631 114.094 185.33 114.556 186.246C115.025 187.163 115.256 188.274 115.249 189.581V200H111.392V190.178C111.392 189.084 111.108 188.228 110.54 187.61C109.979 186.992 109.201 186.683 108.207 186.683C107.532 186.683 106.932 186.832 106.406 187.131C105.888 187.422 105.479 187.844 105.181 188.398C104.89 188.952 104.744 189.624 104.744 190.412ZM126.413 200.32C124.773 200.32 123.356 199.979 122.163 199.297C120.977 198.608 120.064 197.635 119.425 196.378C118.786 195.114 118.466 193.626 118.466 191.914C118.466 190.231 118.786 188.754 119.425 187.482C120.071 186.204 120.973 185.21 122.131 184.499C123.288 183.782 124.648 183.423 126.211 183.423C127.219 183.423 128.171 183.587 129.066 183.913C129.968 184.233 130.763 184.73 131.452 185.405C132.148 186.08 132.695 186.939 133.093 187.983C133.491 189.02 133.69 190.256 133.69 191.69V192.873H120.277V190.273H129.993C129.986 189.535 129.826 188.878 129.513 188.303C129.201 187.72 128.764 187.262 128.203 186.928C127.649 186.594 127.003 186.428 126.264 186.428C125.476 186.428 124.783 186.619 124.187 187.003C123.59 187.379 123.125 187.876 122.791 188.494C122.464 189.105 122.298 189.776 122.29 190.508V192.777C122.29 193.729 122.464 194.545 122.812 195.227C123.161 195.902 123.647 196.42 124.272 196.783C124.897 197.138 125.629 197.315 126.467 197.315C127.028 197.315 127.536 197.237 127.99 197.081C128.445 196.918 128.839 196.68 129.173 196.367C129.506 196.055 129.759 195.668 129.929 195.206L133.53 195.611C133.303 196.562 132.869 197.393 132.23 198.104C131.598 198.807 130.788 199.354 129.801 199.744C128.814 200.128 127.685 200.32 126.413 200.32ZM163.24 185.543H159.255C159.142 184.89 158.932 184.311 158.627 183.807C158.321 183.295 157.941 182.862 157.487 182.507C157.032 182.152 156.514 181.886 155.931 181.708C155.356 181.523 154.735 181.431 154.067 181.431C152.881 181.431 151.83 181.729 150.914 182.326C149.997 182.915 149.28 183.782 148.762 184.925C148.243 186.062 147.984 187.45 147.984 189.091C147.984 190.76 148.243 192.166 148.762 193.31C149.287 194.446 150.004 195.305 150.914 195.888C151.83 196.463 152.877 196.751 154.056 196.751C154.71 196.751 155.32 196.665 155.889 196.495C156.464 196.317 156.979 196.058 157.433 195.717C157.895 195.376 158.282 194.957 158.595 194.46C158.914 193.963 159.134 193.395 159.255 192.756L163.24 192.777C163.09 193.814 162.767 194.787 162.27 195.696C161.78 196.605 161.137 197.408 160.342 198.104C159.546 198.793 158.616 199.332 157.551 199.723C156.485 200.107 155.303 200.298 154.003 200.298C152.085 200.298 150.374 199.854 148.868 198.967C147.362 198.079 146.176 196.797 145.31 195.121C144.443 193.445 144.01 191.435 144.01 189.091C144.01 186.74 144.447 184.73 145.32 183.061C146.194 181.385 147.384 180.103 148.889 179.215C150.395 178.327 152.1 177.884 154.003 177.884C155.218 177.884 156.347 178.054 157.391 178.395C158.435 178.736 159.365 179.237 160.182 179.897C160.999 180.55 161.67 181.353 162.195 182.305C162.728 183.249 163.076 184.329 163.24 185.543ZM173.933 200.32C172.292 200.32 170.875 199.979 169.682 199.297C168.496 198.608 167.583 197.635 166.944 196.378C166.305 195.114 165.985 193.626 165.985 191.914C165.985 190.231 166.305 188.754 166.944 187.482C167.591 186.204 168.493 185.21 169.65 184.499C170.808 183.782 172.168 183.423 173.73 183.423C174.739 183.423 175.691 183.587 176.586 183.913C177.488 184.233 178.283 184.73 178.972 185.405C179.668 186.08 180.215 186.939 180.613 187.983C181.01 189.02 181.209 190.256 181.209 191.69V192.873H167.797V190.273H177.512C177.505 189.535 177.346 188.878 177.033 188.303C176.721 187.72 176.284 187.262 175.723 186.928C175.169 186.594 174.522 186.428 173.784 186.428C172.995 186.428 172.303 186.619 171.706 187.003C171.11 187.379 170.645 187.876 170.311 188.494C169.984 189.105 169.817 189.776 169.81 190.508V192.777C169.81 193.729 169.984 194.545 170.332 195.227C170.68 195.902 171.167 196.42 171.792 196.783C172.417 197.138 173.148 197.315 173.986 197.315C174.547 197.315 175.055 197.237 175.51 197.081C175.964 196.918 176.358 196.68 176.692 196.367C177.026 196.055 177.278 195.668 177.449 195.206L181.049 195.611C180.822 196.562 180.389 197.393 179.75 198.104C179.118 198.807 178.308 199.354 177.321 199.744C176.333 200.128 175.204 200.32 173.933 200.32ZM188.328 190.412V200H184.472V183.636H188.158V186.417H188.35C188.726 185.501 189.326 184.773 190.15 184.233C190.981 183.693 192.007 183.423 193.229 183.423C194.358 183.423 195.342 183.665 196.18 184.148C197.025 184.631 197.678 185.33 198.14 186.246C198.609 187.163 198.84 188.274 198.833 189.581V200H194.976V190.178C194.976 189.084 194.692 188.228 194.124 187.61C193.563 186.992 192.785 186.683 191.791 186.683C191.116 186.683 190.516 186.832 189.99 187.131C189.472 187.422 189.063 187.844 188.765 188.398C188.474 188.952 188.328 189.624 188.328 190.412ZM210.924 183.636V186.619H201.517V183.636H210.924ZM203.84 179.716H207.696V195.078C207.696 195.597 207.774 195.994 207.931 196.271C208.094 196.541 208.307 196.726 208.57 196.825C208.833 196.925 209.124 196.974 209.443 196.974C209.685 196.974 209.905 196.957 210.104 196.921C210.31 196.886 210.466 196.854 210.573 196.825L211.222 199.84C211.017 199.911 210.722 199.989 210.338 200.075C209.962 200.16 209.5 200.21 208.953 200.224C207.987 200.252 207.117 200.107 206.343 199.787C205.569 199.46 204.955 198.956 204.5 198.274C204.053 197.592 203.833 196.74 203.84 195.717V179.716ZM221.218 200.32C219.577 200.32 218.161 199.979 216.967 199.297C215.781 198.608 214.869 197.635 214.229 196.378C213.59 195.114 213.271 193.626 213.271 191.914C213.271 190.231 213.59 188.754 214.229 187.482C214.876 186.204 215.778 185.21 216.935 184.499C218.093 183.782 219.453 183.423 221.016 183.423C222.024 183.423 222.976 183.587 223.871 183.913C224.773 184.233 225.568 184.73 226.257 185.405C226.953 186.08 227.5 186.939 227.898 187.983C228.295 189.02 228.494 190.256 228.494 191.69V192.873H215.082V190.273H224.798C224.79 189.535 224.631 188.878 224.318 188.303C224.006 187.72 223.569 187.262 223.008 186.928C222.454 186.594 221.808 186.428 221.069 186.428C220.281 186.428 219.588 186.619 218.991 187.003C218.395 187.379 217.93 187.876 217.596 188.494C217.269 189.105 217.102 189.776 217.095 190.508V192.777C217.095 193.729 217.269 194.545 217.617 195.227C217.965 195.902 218.452 196.42 219.077 196.783C219.702 197.138 220.433 197.315 221.271 197.315C221.832 197.315 222.34 197.237 222.795 197.081C223.249 196.918 223.643 196.68 223.977 196.367C224.311 196.055 224.563 195.668 224.734 195.206L228.335 195.611C228.107 196.562 227.674 197.393 227.035 198.104C226.403 198.807 225.593 199.354 224.606 199.744C223.619 200.128 222.489 200.32 221.218 200.32ZM231.757 200V183.636H235.496V186.364H235.667C235.965 185.419 236.476 184.691 237.201 184.18C237.932 183.661 238.767 183.402 239.704 183.402C239.917 183.402 240.155 183.413 240.418 183.434C240.688 183.448 240.912 183.473 241.089 183.509V187.056C240.926 186.999 240.667 186.95 240.312 186.907C239.964 186.857 239.626 186.832 239.3 186.832C238.596 186.832 237.964 186.985 237.403 187.29C236.849 187.589 236.412 188.004 236.093 188.537C235.773 189.07 235.613 189.684 235.613 190.38V200H231.757Z" fill="#F16D4A"/>
</svg>
