<svg width="638" height="58" viewBox="0 0 638 58" fill="none" xmlns="http://www.w3.org/2000/svg">
<g filter="url(#filter0_d_1105_166)">
<path d="M4.00001 2.61754H15.9467L28.5646 33.4016H29.1016L41.7195 2.61754H53.6662V48.4357H44.2699V18.6136H43.8896L32.0323 48.212H25.6339L13.7766 18.5018H13.3963V48.4357H4.00001V2.61754ZM76.9948 49.1069C73.5196 49.1069 70.5143 48.3686 67.9788 46.892C65.4582 45.4006 63.5118 43.3274 62.1397 40.6726C60.7675 38.0028 60.0814 34.908 60.0814 31.3881C60.0814 27.8384 60.7675 24.7362 62.1397 22.0813C63.5118 19.4116 65.4582 17.3384 67.9788 15.8619C70.5143 14.3704 73.5196 13.6246 76.9948 13.6246C80.4699 13.6246 83.4678 14.3704 85.9884 15.8619C88.5239 17.3384 90.4777 19.4116 91.8499 22.0813C93.222 24.7362 93.9081 27.8384 93.9081 31.3881C93.9081 34.908 93.222 38.0028 91.8499 40.6726C90.4777 43.3274 88.5239 45.4006 85.9884 46.892C83.4678 48.3686 80.4699 49.1069 76.9948 49.1069ZM77.0395 41.7241C78.6205 41.7241 79.9404 41.2766 80.9994 40.3817C82.0583 39.4719 82.8563 38.234 83.3932 36.668C83.9451 35.1019 84.221 33.3196 84.221 31.321C84.221 29.3224 83.9451 27.5401 83.3932 25.9741C82.8563 24.408 82.0583 23.1701 80.9994 22.2603C79.9404 21.3505 78.6205 20.8956 77.0395 20.8956C75.4436 20.8956 74.1013 21.3505 73.0125 22.2603C71.9387 23.1701 71.1258 24.408 70.574 25.9741C70.037 27.5401 69.7686 29.3224 69.7686 31.321C69.7686 33.3196 70.037 35.1019 70.574 36.668C71.1258 38.234 71.9387 39.4719 73.0125 40.3817C74.1013 41.2766 75.4436 41.7241 77.0395 41.7241ZM131.035 14.0721L119.021 48.4357H108.282L96.2684 14.0721H106.336L113.473 38.6591H113.831L120.945 14.0721H131.035ZM150.465 49.1069C146.93 49.1069 143.888 48.391 141.337 46.9592C138.802 45.5124 136.848 43.4691 135.476 40.8292C134.103 38.1744 133.417 35.0348 133.417 31.4105C133.417 27.8757 134.103 24.7734 135.476 22.1037C136.848 19.434 138.779 17.3533 141.27 15.8619C143.776 14.3704 146.714 13.6246 150.085 13.6246C152.352 13.6246 154.462 13.9901 156.416 14.7209C158.385 15.4368 160.1 16.5181 161.562 17.9648C163.038 19.4116 164.187 21.2312 165.007 23.4237C165.827 25.6012 166.237 28.1516 166.237 31.0749V33.6925H137.221V27.7862H157.266C157.266 26.4141 156.968 25.1985 156.371 24.1396C155.775 23.0806 154.947 22.2528 153.888 21.6563C152.844 21.0447 151.628 20.739 150.241 20.739C148.794 20.739 147.512 21.0746 146.393 21.7457C145.29 22.402 144.424 23.2894 143.798 24.408C143.172 25.5117 142.851 26.7422 142.836 28.0994V33.7148C142.836 35.4151 143.149 36.8842 143.776 38.1222C144.417 39.3601 145.319 40.3146 146.483 40.9858C147.646 41.657 149.026 41.9925 150.622 41.9925C151.68 41.9925 152.65 41.8434 153.53 41.5451C154.41 41.2468 155.163 40.7994 155.79 40.2028C156.416 39.6062 156.893 38.8754 157.221 38.0103L166.036 38.592C165.589 40.7099 164.671 42.5593 163.284 44.1403C161.912 45.7063 160.137 46.9293 157.96 47.8093C155.797 48.6744 153.299 49.1069 150.465 49.1069ZM197.53 48.4357L184.42 2.61754H195.002L202.586 34.4531H202.967L211.334 2.61754H220.395L228.74 34.5202H229.142L236.726 2.61754H247.308L234.198 48.4357H224.757L216.032 18.4794H215.674L206.971 48.4357H197.53ZM252.314 48.4357V14.0721H261.845V48.4357H252.314ZM257.102 9.6424C255.685 9.6424 254.469 9.17259 253.455 8.23295C252.456 7.27841 251.956 6.13743 251.956 4.81001C251.956 3.49751 252.456 2.37145 253.455 1.43182C254.469 0.477273 255.685 -6.55651e-07 257.102 -6.55651e-07C258.519 -6.55651e-07 259.727 0.477273 260.726 1.43182C261.74 2.37145 262.247 3.49751 262.247 4.81001C262.247 6.13743 261.74 7.27841 260.726 8.23295C259.727 9.17259 258.519 9.6424 257.102 9.6424ZM287.757 14.0721V21.2312H267.063V14.0721H287.757ZM271.761 5.83913H281.292V37.8761C281.292 38.756 281.426 39.4421 281.694 39.9343C281.963 40.4116 282.336 40.7472 282.813 40.9411C283.305 41.1349 283.872 41.2319 284.513 41.2319C284.961 41.2319 285.408 41.1946 285.856 41.12C286.303 41.0305 286.646 40.9634 286.885 40.9187L288.384 48.0107C287.906 48.1598 287.235 48.3313 286.37 48.5252C285.505 48.734 284.454 48.8608 283.216 48.9055C280.919 48.995 278.905 48.6893 277.175 47.9883C275.46 47.2873 274.125 46.1985 273.171 44.7219C272.216 43.2454 271.746 41.381 271.761 39.1289V5.83913ZM304.234 28.5692V48.4357H294.704V2.61754H303.966V20.1349H304.369C305.144 18.1065 306.397 16.5181 308.127 15.3697C309.857 14.2063 312.027 13.6246 314.637 13.6246C317.024 13.6246 319.104 14.1467 320.879 15.1907C322.669 16.2198 324.056 17.7038 325.04 19.6428C326.04 21.5668 326.532 23.8711 326.517 26.5558V48.4357H316.987V28.256C317.001 26.1381 316.464 24.4901 315.376 23.3118C314.302 22.1335 312.795 21.5444 310.857 21.5444C309.559 21.5444 308.411 21.8203 307.411 22.3722C306.427 22.924 305.651 23.7294 305.085 24.7884C304.533 25.8324 304.249 27.0927 304.234 28.5692ZM347.032 10.6044V2.61754H384.662V10.6044H370.635V48.4357H361.06V10.6044H347.032ZM400.211 28.5692V48.4357H390.68V2.61754H399.942V20.1349H400.345C401.121 18.1065 402.374 16.5181 404.104 15.3697C405.834 14.2063 408.004 13.6246 410.614 13.6246C413 13.6246 415.081 14.1467 416.856 15.1907C418.646 16.2198 420.033 17.7038 421.017 19.6428C422.016 21.5668 422.509 23.8711 422.494 26.5558V48.4357H412.963V28.256C412.978 26.1381 412.441 24.4901 411.352 23.3118C410.278 22.1335 408.772 21.5444 406.833 21.5444C405.536 21.5444 404.387 21.8203 403.388 22.3722C402.403 22.924 401.628 23.7294 401.061 24.7884C400.509 25.8324 400.226 27.0927 400.211 28.5692ZM445.654 49.1069C442.12 49.1069 439.077 48.391 436.527 46.9592C433.991 45.5124 432.037 43.4691 430.665 40.8292C429.293 38.1744 428.607 35.0348 428.607 31.4105C428.607 27.8757 429.293 24.7734 430.665 22.1037C432.037 19.434 433.969 17.3533 436.459 15.8619C438.965 14.3704 441.903 13.6246 445.274 13.6246C447.541 13.6246 449.652 13.9901 451.605 14.7209C453.574 15.4368 455.289 16.5181 456.751 17.9648C458.228 19.4116 459.376 21.2312 460.196 23.4237C461.017 25.6012 461.427 28.1516 461.427 31.0749V33.6925H432.41V27.7862H452.456C452.456 26.4141 452.157 25.1985 451.561 24.1396C450.964 23.0806 450.136 22.2528 449.077 21.6563C448.033 21.0447 446.818 20.739 445.431 20.739C443.984 20.739 442.701 21.0746 441.583 21.7457C440.479 22.402 439.614 23.2894 438.987 24.408C438.361 25.5117 438.04 26.7422 438.025 28.0994V33.7148C438.025 35.4151 438.339 36.8842 438.965 38.1222C439.606 39.3601 440.509 40.3146 441.672 40.9858C442.835 41.657 444.215 41.9925 445.811 41.9925C446.87 41.9925 447.839 41.8434 448.719 41.5451C449.599 41.2468 450.353 40.7994 450.979 40.2028C451.605 39.6062 452.083 38.8754 452.411 38.0103L461.225 38.592C460.778 40.7099 459.861 42.5593 458.474 44.1403C457.101 45.7063 455.327 46.9293 453.149 47.8093C450.986 48.6744 448.488 49.1069 445.654 49.1069ZM482.406 48.4357V2.61754H500.751C504.122 2.61754 506.934 3.11719 509.186 4.11648C511.438 5.11577 513.131 6.50284 514.264 8.2777C515.398 10.0376 515.964 12.0661 515.964 14.3629C515.964 16.1527 515.607 17.7262 514.891 19.0835C514.175 20.4258 513.19 21.5295 511.938 22.3945C510.7 23.2447 509.283 23.8487 507.687 24.2067V24.6541C509.432 24.7287 511.065 25.2209 512.586 26.1307C514.123 27.0405 515.368 28.3157 516.322 29.9563C517.277 31.582 517.754 33.521 517.754 35.7731C517.754 38.2042 517.15 40.3743 515.942 42.2834C514.749 44.1776 512.982 45.6765 510.64 46.7802C508.298 47.8839 505.412 48.4357 501.982 48.4357H482.406ZM492.093 40.516H499.991C502.69 40.516 504.659 40.0014 505.897 38.9723C507.135 37.9283 507.754 36.5412 507.754 34.8111C507.754 33.5433 507.448 32.4247 506.837 31.4553C506.225 30.4858 505.353 29.7251 504.219 29.1733C503.101 28.6214 501.766 28.3455 500.214 28.3455H492.093V40.516ZM492.093 21.7905H499.275C500.602 21.7905 501.781 21.5593 502.81 21.0969C503.854 20.6197 504.674 19.9485 505.271 19.0835C505.882 18.2184 506.188 17.1818 506.188 15.9737C506.188 14.3182 505.599 12.9833 504.42 11.9691C503.257 10.9549 501.602 10.4478 499.454 10.4478H492.093V21.7905ZM539.539 49.1069C536.004 49.1069 532.962 48.391 530.411 46.9592C527.876 45.5124 525.922 43.4691 524.55 40.8292C523.178 38.1744 522.492 35.0348 522.492 31.4105C522.492 27.8757 523.178 24.7734 524.55 22.1037C525.922 19.434 527.853 17.3533 530.344 15.8619C532.85 14.3704 535.788 13.6246 539.159 13.6246C541.426 13.6246 543.536 13.9901 545.49 14.7209C547.459 15.4368 549.174 16.5181 550.636 17.9648C552.112 19.4116 553.261 21.2312 554.081 23.4237C554.901 25.6012 555.312 28.1516 555.312 31.0749V33.6925H526.295V27.7862H546.34C546.34 26.4141 546.042 25.1985 545.445 24.1396C544.849 23.0806 544.021 22.2528 542.962 21.6563C541.918 21.0447 540.703 20.739 539.315 20.739C537.869 20.739 536.586 21.0746 535.467 21.7457C534.364 22.402 533.499 23.2894 532.872 24.408C532.246 25.5117 531.925 26.7422 531.91 28.0994V33.7148C531.91 35.4151 532.223 36.8842 532.85 38.1222C533.491 39.3601 534.394 40.3146 535.557 40.9858C536.72 41.657 538.1 41.9925 539.696 41.9925C540.755 41.9925 541.724 41.8434 542.604 41.5451C543.484 41.2468 544.237 40.7994 544.864 40.2028C545.49 39.6062 545.967 38.8754 546.296 38.0103L555.11 38.592C554.663 40.7099 553.745 42.5593 552.358 44.1403C550.986 45.7063 549.211 46.9293 547.034 47.8093C544.871 48.6744 542.373 49.1069 539.539 49.1069ZM571.33 49.0845C569.138 49.0845 567.184 48.7042 565.468 47.9435C563.753 47.168 562.396 46.027 561.397 44.5206C560.412 42.9993 559.92 41.1051 559.92 38.8381C559.92 36.929 560.271 35.3256 560.972 34.0281C561.673 32.7305 562.627 31.6864 563.835 30.896C565.043 30.1055 566.416 29.5089 567.952 29.1062C569.503 28.7035 571.129 28.4201 572.829 28.256C574.828 28.0472 576.438 27.8533 577.661 27.6744C578.884 27.4805 579.772 27.1971 580.324 26.8242C580.875 26.4514 581.151 25.8995 581.151 25.1687V25.0344C581.151 23.6175 580.704 22.5213 579.809 21.7457C578.929 20.9702 577.676 20.5824 576.051 20.5824C574.335 20.5824 572.971 20.9627 571.956 21.7234C570.942 22.4691 570.271 23.4087 569.943 24.5423L561.128 23.8264C561.576 21.7383 562.456 19.9336 563.768 18.4123C565.081 16.8761 566.774 15.6978 568.847 14.8775C570.935 14.0423 573.351 13.6246 576.095 13.6246C578.004 13.6246 579.831 13.8484 581.576 14.2958C583.336 14.7433 584.895 15.4368 586.252 16.3764C587.624 17.3161 588.706 18.5241 589.496 20.0007C590.287 21.4624 590.682 23.2148 590.682 25.2582V48.4357H581.644V43.6705H581.375C580.823 44.7443 580.085 45.6914 579.16 46.5117C578.236 47.3171 577.124 47.951 575.827 48.4134C574.529 48.8608 573.03 49.0845 571.33 49.0845ZM574.059 42.5071C575.461 42.5071 576.699 42.2312 577.773 41.6793C578.847 41.1126 579.69 40.3519 580.301 39.3974C580.913 38.4428 581.218 37.3615 581.218 36.1534V32.5067C580.92 32.7006 580.51 32.8796 579.988 33.0437C579.481 33.1928 578.907 33.3345 578.265 33.4688C577.624 33.5881 576.983 33.6999 576.341 33.8043C575.7 33.8938 575.118 33.9759 574.596 34.0504C573.478 34.2145 572.501 34.4755 571.666 34.8335C570.83 35.1914 570.182 35.6761 569.719 36.2876C569.257 36.8842 569.026 37.63 569.026 38.5249C569.026 39.8224 569.495 40.8143 570.435 41.5004C571.39 42.1715 572.598 42.5071 574.059 42.5071ZM616.354 14.0721V21.2312H595.66V14.0721H616.354ZM600.358 5.83913H609.888V37.8761C609.888 38.756 610.023 39.4421 610.291 39.9343C610.56 40.4116 610.932 40.7472 611.41 40.9411C611.902 41.1349 612.469 41.2319 613.11 41.2319C613.557 41.2319 614.005 41.1946 614.452 41.12C614.9 41.0305 615.243 40.9634 615.481 40.9187L616.98 48.0107C616.503 48.1598 615.832 48.3313 614.967 48.5252C614.102 48.734 613.05 48.8608 611.812 48.9055C609.516 48.995 607.502 48.6893 605.772 47.9883C604.057 47.2873 602.722 46.1985 601.767 44.7219C600.813 43.2454 600.343 41.381 600.358 39.1289V5.83913ZM628.133 49.0174C626.656 49.0174 625.389 48.4954 624.33 47.4514C623.286 46.3924 622.764 45.1246 622.764 43.6481C622.764 42.1864 623.286 40.9336 624.33 39.8896C625.389 38.8455 626.656 38.3235 628.133 38.3235C629.565 38.3235 630.818 38.8455 631.891 39.8896C632.965 40.9336 633.502 42.1864 633.502 43.6481C633.502 44.6325 633.249 45.5348 632.742 46.3551C632.249 47.1605 631.601 47.8093 630.795 48.3015C629.99 48.7788 629.102 49.0174 628.133 49.0174Z" fill="white"/>
</g>
<defs>
<filter id="filter0_d_1105_166" x="0" y="0" width="637.502" height="57.1069" filterUnits="userSpaceOnUse" color-interpolation-filters="sRGB">
<feFlood flood-opacity="0" result="BackgroundImageFix"/>
<feColorMatrix in="SourceAlpha" type="matrix" values="0 0 0 0 0 0 0 0 0 0 0 0 0 0 0 0 0 0 127 0" result="hardAlpha"/>
<feOffset dy="4"/>
<feGaussianBlur stdDeviation="2"/>
<feComposite in2="hardAlpha" operator="out"/>
<feColorMatrix type="matrix" values="0 0 0 0 0 0 0 0 0 0 0 0 0 0 0 0 0 0 0.25 0"/>
<feBlend mode="normal" in2="BackgroundImageFix" result="effect1_dropShadow_1105_166"/>
<feBlend mode="normal" in="SourceGraphic" in2="effect1_dropShadow_1105_166" result="shape"/>
</filter>
</defs>
</svg>
